<svg width="974" height="636" viewBox="0 0 974 636" fill="none" xmlns="http://www.w3.org/2000/svg">
<rect x="1.5" y="1.5" width="971" height="633" rx="3.5" stroke="black" stroke-width="3"/>
<rect x="43" y="430" width="195" height="171" rx="15" fill="#EE8484"/>
<rect x="733.829" y="94.0536" width="195" height="87" rx="15" transform="rotate(-21.6573 733.829 94.0536)" fill="black"/>
<path d="M814.536 92.616C814.399 91.4645 813.846 90.5706 812.877 89.9342C811.907 89.2978 810.718 88.9797 809.308 88.9797C808.278 88.9797 807.377 89.1463 806.604 89.4797C805.839 89.813 805.24 90.2713 804.808 90.8547C804.384 91.438 804.172 92.1009 804.172 92.8433C804.172 93.4645 804.32 93.9986 804.615 94.4456C804.918 94.885 805.305 95.2524 805.774 95.5478C806.244 95.8357 806.737 96.0744 807.252 96.2638C807.767 96.4456 808.24 96.5933 808.672 96.7069L811.036 97.3433C811.642 97.5024 812.316 97.7221 813.058 98.0024C813.808 98.2827 814.524 98.6653 815.206 99.1501C815.896 99.6274 816.464 100.241 816.911 100.991C817.358 101.741 817.581 102.661 817.581 103.752C817.581 105.01 817.252 106.146 816.593 107.161C815.941 108.177 814.987 108.983 813.729 109.582C812.479 110.18 810.96 110.48 809.172 110.48C807.505 110.48 806.062 110.211 804.843 109.673C803.63 109.135 802.676 108.385 801.979 107.423C801.29 106.461 800.899 105.343 800.808 104.071H803.718C803.793 104.949 804.089 105.677 804.604 106.252C805.127 106.821 805.786 107.245 806.581 107.525C807.384 107.798 808.248 107.934 809.172 107.934C810.248 107.934 811.214 107.76 812.07 107.411C812.926 107.055 813.604 106.563 814.104 105.934C814.604 105.298 814.854 104.555 814.854 103.707C814.854 102.934 814.638 102.305 814.206 101.821C813.774 101.336 813.206 100.942 812.502 100.639C811.797 100.336 811.036 100.071 810.218 99.8433L807.354 99.0251C805.536 98.5024 804.096 97.7562 803.036 96.7865C801.975 95.8168 801.445 94.5478 801.445 92.9797C801.445 91.6766 801.797 90.5403 802.502 89.5706C803.214 88.5933 804.168 87.8357 805.365 87.2978C806.57 86.7524 807.915 86.4797 809.399 86.4797C810.899 86.4797 812.233 86.7486 813.399 87.2865C814.566 87.8168 815.49 88.5441 816.172 89.4683C816.862 90.3925 817.225 91.4418 817.263 92.616H814.536ZM829.442 92.616V94.8888H820.397V92.616H829.442ZM823.033 88.4342H825.715V105.071C825.715 105.828 825.825 106.396 826.044 106.775C826.272 107.146 826.559 107.396 826.908 107.525C827.264 107.646 827.639 107.707 828.033 107.707C828.328 107.707 828.571 107.692 828.76 107.661C828.95 107.624 829.101 107.593 829.215 107.571L829.76 109.98C829.578 110.048 829.325 110.116 828.999 110.184C828.673 110.26 828.26 110.298 827.76 110.298C827.003 110.298 826.26 110.135 825.533 109.809C824.813 109.483 824.215 108.987 823.737 108.321C823.268 107.654 823.033 106.813 823.033 105.798V88.4342ZM838.612 110.48C837.506 110.48 836.503 110.271 835.601 109.855C834.7 109.43 833.984 108.821 833.453 108.025C832.923 107.222 832.658 106.252 832.658 105.116C832.658 104.116 832.855 103.305 833.249 102.684C833.643 102.055 834.169 101.563 834.828 101.207C835.487 100.851 836.215 100.586 837.01 100.411C837.813 100.23 838.62 100.086 839.431 99.9797C840.491 99.8433 841.351 99.741 842.01 99.6728C842.677 99.5971 843.162 99.4721 843.465 99.2978C843.775 99.1236 843.931 98.8206 843.931 98.3888V98.2978C843.931 97.1766 843.624 96.3054 843.01 95.6842C842.404 95.063 841.484 94.7524 840.249 94.7524C838.969 94.7524 837.965 95.0327 837.237 95.5933C836.51 96.1539 835.999 96.7524 835.703 97.3888L833.158 96.4797C833.612 95.4191 834.219 94.5933 834.976 94.0024C835.741 93.4039 836.575 92.9872 837.476 92.7524C838.385 92.51 839.279 92.3888 840.158 92.3888C840.719 92.3888 841.362 92.4569 842.09 92.5933C842.825 92.7221 843.533 92.991 844.215 93.4001C844.904 93.8092 845.476 94.4266 845.931 95.2524C846.385 96.0781 846.612 97.1842 846.612 98.5706V110.071H843.931V107.707H843.794C843.612 108.086 843.309 108.491 842.885 108.923C842.461 109.355 841.897 109.722 841.192 110.025C840.487 110.328 839.628 110.48 838.612 110.48ZM839.022 108.071C840.082 108.071 840.976 107.862 841.703 107.446C842.438 107.029 842.991 106.491 843.362 105.832C843.741 105.173 843.931 104.48 843.931 103.752V101.298C843.817 101.434 843.567 101.559 843.181 101.673C842.802 101.779 842.362 101.874 841.862 101.957C841.37 102.033 840.889 102.101 840.419 102.161C839.957 102.215 839.582 102.26 839.294 102.298C838.597 102.389 837.946 102.536 837.34 102.741C836.741 102.938 836.256 103.237 835.885 103.639C835.522 104.033 835.34 104.571 835.34 105.252C835.34 106.184 835.684 106.889 836.374 107.366C837.071 107.836 837.953 108.071 839.022 108.071ZM851.507 110.071V92.616H854.189V110.071H851.507ZM852.871 89.7069C852.348 89.7069 851.897 89.5289 851.519 89.1728C851.147 88.8168 850.962 88.3888 850.962 87.8888C850.962 87.3888 851.147 86.9607 851.519 86.6047C851.897 86.2486 852.348 86.0706 852.871 86.0706C853.394 86.0706 853.841 86.2486 854.212 86.6047C854.591 86.9607 854.78 87.3888 854.78 87.8888C854.78 88.3888 854.591 88.8168 854.212 89.1728C853.841 89.5289 853.394 89.7069 852.871 89.7069ZM859.101 110.071V92.616H861.692V95.2524H861.874C862.192 94.3888 862.768 93.688 863.601 93.1501C864.434 92.6122 865.374 92.3433 866.419 92.3433C866.616 92.3433 866.862 92.3471 867.158 92.3547C867.453 92.3622 867.677 92.3736 867.828 92.3888V95.116C867.737 95.0933 867.529 95.0592 867.203 95.0138C866.885 94.9607 866.548 94.9342 866.192 94.9342C865.344 94.9342 864.586 95.1122 863.919 95.4683C863.26 95.8168 862.737 96.3016 862.351 96.9228C861.972 97.5365 861.783 98.2372 861.783 99.0251V110.071H859.101ZM883.371 96.5251L880.962 97.2069C880.81 96.8054 880.587 96.4153 880.291 96.0365C880.004 95.6501 879.61 95.3319 879.11 95.0819C878.61 94.8319 877.969 94.7069 877.189 94.7069C876.121 94.7069 875.231 94.9531 874.519 95.4456C873.814 95.9304 873.462 96.5478 873.462 97.2978C873.462 97.9645 873.704 98.491 874.189 98.8774C874.674 99.2638 875.432 99.5857 876.462 99.8433L879.053 100.48C880.613 100.858 881.776 101.438 882.541 102.218C883.307 102.991 883.689 103.987 883.689 105.207C883.689 106.207 883.401 107.101 882.826 107.889C882.257 108.677 881.462 109.298 880.439 109.752C879.416 110.207 878.227 110.434 876.871 110.434C875.091 110.434 873.617 110.048 872.451 109.275C871.284 108.502 870.545 107.374 870.235 105.889L872.78 105.252C873.022 106.192 873.481 106.896 874.155 107.366C874.837 107.836 875.727 108.071 876.826 108.071C878.076 108.071 879.068 107.805 879.803 107.275C880.545 106.737 880.916 106.093 880.916 105.343C880.916 104.737 880.704 104.23 880.28 103.821C879.856 103.404 879.204 103.093 878.326 102.889L875.416 102.207C873.818 101.828 872.644 101.241 871.894 100.446C871.151 99.6425 870.78 98.6388 870.78 97.4342C870.78 96.4494 871.057 95.5781 871.61 94.8206C872.17 94.063 872.932 93.4683 873.894 93.0365C874.863 92.6047 875.962 92.3888 877.189 92.3888C878.916 92.3888 880.272 92.7675 881.257 93.5251C882.25 94.2827 882.954 95.2827 883.371 96.5251Z" fill="white"/>
<rect x="306" y="35" width="365" height="171" rx="15" fill="#EE8484"/>
<rect x="306" y="273" width="365" height="328" rx="15" fill="#FFDB59"/>
<rect x="738" y="273" width="195" height="328" rx="15" fill="#8EF474"/>
<rect x="43" y="35" width="195" height="171" rx="15" fill="#8EF474"/>
<path d="M100.178 112V88.7273H108.041C109.859 88.7273 111.352 89.0379 112.518 89.6591C113.685 90.2727 114.549 91.1174 115.109 92.1932C115.67 93.2689 115.95 94.4924 115.95 95.8636C115.95 97.2348 115.67 98.4508 115.109 99.5114C114.549 100.572 113.689 101.405 112.53 102.011C111.371 102.61 109.89 102.909 108.087 102.909H101.723V100.364H107.996C109.238 100.364 110.238 100.182 110.996 99.8182C111.761 99.4545 112.314 98.9394 112.655 98.2727C113.003 97.5985 113.178 96.7955 113.178 95.8636C113.178 94.9318 113.003 94.1174 112.655 93.4205C112.306 92.7235 111.75 92.1856 110.984 91.8068C110.219 91.4205 109.208 91.2273 107.95 91.2273H102.996V112H100.178ZM111.132 101.545L116.859 112H113.587L107.95 101.545H111.132ZM127.186 112.364C125.61 112.364 124.228 111.989 123.038 111.239C121.857 110.489 120.932 109.439 120.266 108.091C119.607 106.742 119.277 105.167 119.277 103.364C119.277 101.545 119.607 99.9583 120.266 98.6023C120.932 97.2462 121.857 96.1932 123.038 95.4432C124.228 94.6932 125.61 94.3182 127.186 94.3182C128.762 94.3182 130.141 94.6932 131.322 95.4432C132.512 96.1932 133.436 97.2462 134.095 98.6023C134.762 99.9583 135.095 101.545 135.095 103.364C135.095 105.167 134.762 106.742 134.095 108.091C133.436 109.439 132.512 110.489 131.322 111.239C130.141 111.989 128.762 112.364 127.186 112.364ZM127.186 109.955C128.383 109.955 129.368 109.648 130.141 109.034C130.913 108.42 131.485 107.614 131.857 106.614C132.228 105.614 132.413 104.53 132.413 103.364C132.413 102.197 132.228 101.11 131.857 100.102C131.485 99.0947 130.913 98.2803 130.141 97.6591C129.368 97.0379 128.383 96.7273 127.186 96.7273C125.989 96.7273 125.004 97.0379 124.232 97.6591C123.459 98.2803 122.887 99.0947 122.516 100.102C122.144 101.11 121.959 102.197 121.959 103.364C121.959 104.53 122.144 105.614 122.516 106.614C122.887 107.614 123.459 108.42 124.232 109.034C125.004 109.648 125.989 109.955 127.186 109.955ZM146.28 112.364C144.704 112.364 143.321 111.989 142.132 111.239C140.95 110.489 140.026 109.439 139.359 108.091C138.7 106.742 138.371 105.167 138.371 103.364C138.371 101.545 138.7 99.9583 139.359 98.6023C140.026 97.2462 140.95 96.1932 142.132 95.4432C143.321 94.6932 144.704 94.3182 146.28 94.3182C147.856 94.3182 149.234 94.6932 150.416 95.4432C151.606 96.1932 152.53 97.2462 153.189 98.6023C153.856 99.9583 154.189 101.545 154.189 103.364C154.189 105.167 153.856 106.742 153.189 108.091C152.53 109.439 151.606 110.489 150.416 111.239C149.234 111.989 147.856 112.364 146.28 112.364ZM146.28 109.955C147.477 109.955 148.462 109.648 149.234 109.034C150.007 108.42 150.579 107.614 150.95 106.614C151.321 105.614 151.507 104.53 151.507 103.364C151.507 102.197 151.321 101.11 150.95 100.102C150.579 99.0947 150.007 98.2803 149.234 97.6591C148.462 97.0379 147.477 96.7273 146.28 96.7273C145.083 96.7273 144.098 97.0379 143.325 97.6591C142.553 98.2803 141.981 99.0947 141.609 100.102C141.238 101.11 141.053 102.197 141.053 103.364C141.053 104.53 141.238 105.614 141.609 106.614C141.981 107.614 142.553 108.42 143.325 109.034C144.098 109.648 145.083 109.955 146.28 109.955ZM158.283 112V94.5455H160.874V97.2727H161.101C161.464 96.3409 162.052 95.6174 162.862 95.1023C163.673 94.5795 164.646 94.3182 165.783 94.3182C166.934 94.3182 167.893 94.5795 168.658 95.1023C169.43 95.6174 170.033 96.3409 170.464 97.2727H170.646C171.093 96.3712 171.764 95.6553 172.658 95.125C173.552 94.5871 174.624 94.3182 175.874 94.3182C177.434 94.3182 178.711 94.8068 179.703 95.7841C180.696 96.7538 181.192 98.2652 181.192 100.318V112H178.51V100.318C178.51 99.0303 178.158 98.1098 177.453 97.5568C176.749 97.0038 175.919 96.7273 174.964 96.7273C173.737 96.7273 172.786 97.0985 172.112 97.8409C171.438 98.5758 171.101 99.5076 171.101 100.636V112H168.374V100.045C168.374 99.053 168.052 98.2538 167.408 97.6477C166.764 97.0341 165.934 96.7273 164.919 96.7273C164.222 96.7273 163.571 96.9129 162.964 97.2841C162.366 97.6553 161.881 98.1705 161.51 98.8295C161.146 99.4811 160.964 100.235 160.964 101.091V112H158.283ZM131.045 133.545C130.909 132.394 130.356 131.5 129.386 130.864C128.417 130.227 127.227 129.909 125.818 129.909C124.788 129.909 123.886 130.076 123.114 130.409C122.348 130.742 121.75 131.201 121.318 131.784C120.894 132.367 120.682 133.03 120.682 133.773C120.682 134.394 120.83 134.928 121.125 135.375C121.428 135.814 121.814 136.182 122.284 136.477C122.754 136.765 123.246 137.004 123.761 137.193C124.277 137.375 124.75 137.523 125.182 137.636L127.545 138.273C128.152 138.432 128.826 138.652 129.568 138.932C130.318 139.212 131.034 139.595 131.716 140.08C132.405 140.557 132.973 141.17 133.42 141.92C133.867 142.67 134.091 143.591 134.091 144.682C134.091 145.939 133.761 147.076 133.102 148.091C132.451 149.106 131.496 149.913 130.239 150.511C128.989 151.11 127.47 151.409 125.682 151.409C124.015 151.409 122.572 151.14 121.352 150.602C120.14 150.064 119.186 149.314 118.489 148.352C117.799 147.39 117.409 146.273 117.318 145H120.227C120.303 145.879 120.598 146.606 121.114 147.182C121.636 147.75 122.295 148.174 123.091 148.455C123.894 148.727 124.758 148.864 125.682 148.864C126.758 148.864 127.723 148.689 128.58 148.341C129.436 147.985 130.114 147.492 130.614 146.864C131.114 146.227 131.364 145.485 131.364 144.636C131.364 143.864 131.148 143.235 130.716 142.75C130.284 142.265 129.716 141.871 129.011 141.568C128.307 141.265 127.545 141 126.727 140.773L123.864 139.955C122.045 139.432 120.606 138.686 119.545 137.716C118.485 136.746 117.955 135.477 117.955 133.909C117.955 132.606 118.307 131.47 119.011 130.5C119.723 129.523 120.678 128.765 121.875 128.227C123.08 127.682 124.424 127.409 125.909 127.409C127.409 127.409 128.742 127.678 129.909 128.216C131.076 128.746 132 129.473 132.682 130.398C133.371 131.322 133.735 132.371 133.773 133.545H131.045ZM148.361 138.114V140.614H138.179V138.114H148.361ZM161.216 127.727V151H158.398V130.682H158.261L152.58 134.455V131.591L158.398 127.727H161.216Z" fill="black"/>
<path d="M795.178 429V405.727H803.041C804.859 405.727 806.352 406.038 807.518 406.659C808.685 407.273 809.549 408.117 810.109 409.193C810.67 410.269 810.95 411.492 810.95 412.864C810.95 414.235 810.67 415.451 810.109 416.511C809.549 417.572 808.689 418.405 807.53 419.011C806.371 419.61 804.89 419.909 803.087 419.909H796.723V417.364H802.996C804.238 417.364 805.238 417.182 805.996 416.818C806.761 416.455 807.314 415.939 807.655 415.273C808.003 414.598 808.178 413.795 808.178 412.864C808.178 411.932 808.003 411.117 807.655 410.42C807.306 409.723 806.75 409.186 805.984 408.807C805.219 408.42 804.208 408.227 802.95 408.227H797.996V429H795.178ZM806.132 418.545L811.859 429H808.587L802.95 418.545H806.132ZM822.186 429.364C820.61 429.364 819.228 428.989 818.038 428.239C816.857 427.489 815.932 426.439 815.266 425.091C814.607 423.742 814.277 422.167 814.277 420.364C814.277 418.545 814.607 416.958 815.266 415.602C815.932 414.246 816.857 413.193 818.038 412.443C819.228 411.693 820.61 411.318 822.186 411.318C823.762 411.318 825.141 411.693 826.322 412.443C827.512 413.193 828.436 414.246 829.095 415.602C829.762 416.958 830.095 418.545 830.095 420.364C830.095 422.167 829.762 423.742 829.095 425.091C828.436 426.439 827.512 427.489 826.322 428.239C825.141 428.989 823.762 429.364 822.186 429.364ZM822.186 426.955C823.383 426.955 824.368 426.648 825.141 426.034C825.913 425.42 826.485 424.614 826.857 423.614C827.228 422.614 827.413 421.53 827.413 420.364C827.413 419.197 827.228 418.11 826.857 417.102C826.485 416.095 825.913 415.28 825.141 414.659C824.368 414.038 823.383 413.727 822.186 413.727C820.989 413.727 820.004 414.038 819.232 414.659C818.459 415.28 817.887 416.095 817.516 417.102C817.144 418.11 816.959 419.197 816.959 420.364C816.959 421.53 817.144 422.614 817.516 423.614C817.887 424.614 818.459 425.42 819.232 426.034C820.004 426.648 820.989 426.955 822.186 426.955ZM841.28 429.364C839.704 429.364 838.321 428.989 837.132 428.239C835.95 427.489 835.026 426.439 834.359 425.091C833.7 423.742 833.371 422.167 833.371 420.364C833.371 418.545 833.7 416.958 834.359 415.602C835.026 414.246 835.95 413.193 837.132 412.443C838.321 411.693 839.704 411.318 841.28 411.318C842.856 411.318 844.234 411.693 845.416 412.443C846.606 413.193 847.53 414.246 848.189 415.602C848.856 416.958 849.189 418.545 849.189 420.364C849.189 422.167 848.856 423.742 848.189 425.091C847.53 426.439 846.606 427.489 845.416 428.239C844.234 428.989 842.856 429.364 841.28 429.364ZM841.28 426.955C842.477 426.955 843.462 426.648 844.234 426.034C845.007 425.42 845.579 424.614 845.95 423.614C846.321 422.614 846.507 421.53 846.507 420.364C846.507 419.197 846.321 418.11 845.95 417.102C845.579 416.095 845.007 415.28 844.234 414.659C843.462 414.038 842.477 413.727 841.28 413.727C840.083 413.727 839.098 414.038 838.325 414.659C837.553 415.28 836.981 416.095 836.609 417.102C836.238 418.11 836.053 419.197 836.053 420.364C836.053 421.53 836.238 422.614 836.609 423.614C836.981 424.614 837.553 425.42 838.325 426.034C839.098 426.648 840.083 426.955 841.28 426.955ZM853.283 429V411.545H855.874V414.273H856.101C856.464 413.341 857.052 412.617 857.862 412.102C858.673 411.58 859.646 411.318 860.783 411.318C861.934 411.318 862.893 411.58 863.658 412.102C864.43 412.617 865.033 413.341 865.464 414.273H865.646C866.093 413.371 866.764 412.655 867.658 412.125C868.552 411.587 869.624 411.318 870.874 411.318C872.434 411.318 873.711 411.807 874.703 412.784C875.696 413.754 876.192 415.265 876.192 417.318V429H873.51V417.318C873.51 416.03 873.158 415.11 872.453 414.557C871.749 414.004 870.919 413.727 869.964 413.727C868.737 413.727 867.786 414.098 867.112 414.841C866.438 415.576 866.101 416.508 866.101 417.636V429H863.374V417.045C863.374 416.053 863.052 415.254 862.408 414.648C861.764 414.034 860.934 413.727 859.919 413.727C859.222 413.727 858.571 413.913 857.964 414.284C857.366 414.655 856.881 415.17 856.51 415.83C856.146 416.481 855.964 417.235 855.964 418.091V429H853.283ZM807.584 444.727H810.947L818.857 464.045H819.129L827.038 444.727H830.402V468H827.766V450.318H827.538L820.266 468H817.72L810.447 450.318H810.22V468H807.584V444.727ZM845.689 455.114V457.614H835.507V455.114H845.689ZM849.268 468V465.955L856.95 457.545C857.852 456.561 858.594 455.705 859.178 454.977C859.761 454.242 860.193 453.553 860.473 452.909C860.761 452.258 860.905 451.576 860.905 450.864C860.905 450.045 860.708 449.337 860.314 448.739C859.928 448.14 859.397 447.678 858.723 447.352C858.049 447.027 857.291 446.864 856.45 446.864C855.556 446.864 854.776 447.049 854.109 447.42C853.45 447.784 852.939 448.295 852.575 448.955C852.219 449.614 852.041 450.386 852.041 451.273H849.359C849.359 449.909 849.674 448.712 850.303 447.682C850.931 446.652 851.787 445.848 852.871 445.273C853.962 444.697 855.185 444.409 856.541 444.409C857.905 444.409 859.113 444.697 860.166 445.273C861.219 445.848 862.045 446.625 862.643 447.602C863.242 448.58 863.541 449.667 863.541 450.864C863.541 451.72 863.386 452.557 863.075 453.375C862.772 454.186 862.242 455.091 861.484 456.091C860.734 457.083 859.693 458.295 858.359 459.727L853.132 465.318V465.5H863.95V468H849.268Z" fill="black"/>
<path d="M448.178 112V88.7273H456.041C457.859 88.7273 459.352 89.0379 460.518 89.6591C461.685 90.2727 462.549 91.1174 463.109 92.1932C463.67 93.2689 463.95 94.4924 463.95 95.8636C463.95 97.2348 463.67 98.4508 463.109 99.5114C462.549 100.572 461.689 101.405 460.53 102.011C459.371 102.61 457.89 102.909 456.087 102.909H449.723V100.364H455.996C457.238 100.364 458.238 100.182 458.996 99.8182C459.761 99.4545 460.314 98.9394 460.655 98.2727C461.003 97.5985 461.178 96.7955 461.178 95.8636C461.178 94.9318 461.003 94.1174 460.655 93.4205C460.306 92.7235 459.75 92.1856 458.984 91.8068C458.219 91.4205 457.208 91.2273 455.95 91.2273H450.996V112H448.178ZM459.132 101.545L464.859 112H461.587L455.95 101.545H459.132ZM475.186 112.364C473.61 112.364 472.228 111.989 471.038 111.239C469.857 110.489 468.932 109.439 468.266 108.091C467.607 106.742 467.277 105.167 467.277 103.364C467.277 101.545 467.607 99.9583 468.266 98.6023C468.932 97.2462 469.857 96.1932 471.038 95.4432C472.228 94.6932 473.61 94.3182 475.186 94.3182C476.762 94.3182 478.141 94.6932 479.322 95.4432C480.512 96.1932 481.436 97.2462 482.095 98.6023C482.762 99.9583 483.095 101.545 483.095 103.364C483.095 105.167 482.762 106.742 482.095 108.091C481.436 109.439 480.512 110.489 479.322 111.239C478.141 111.989 476.762 112.364 475.186 112.364ZM475.186 109.955C476.383 109.955 477.368 109.648 478.141 109.034C478.913 108.42 479.485 107.614 479.857 106.614C480.228 105.614 480.413 104.53 480.413 103.364C480.413 102.197 480.228 101.11 479.857 100.102C479.485 99.0947 478.913 98.2803 478.141 97.6591C477.368 97.0379 476.383 96.7273 475.186 96.7273C473.989 96.7273 473.004 97.0379 472.232 97.6591C471.459 98.2803 470.887 99.0947 470.516 100.102C470.144 101.11 469.959 102.197 469.959 103.364C469.959 104.53 470.144 105.614 470.516 106.614C470.887 107.614 471.459 108.42 472.232 109.034C473.004 109.648 473.989 109.955 475.186 109.955ZM494.28 112.364C492.704 112.364 491.321 111.989 490.132 111.239C488.95 110.489 488.026 109.439 487.359 108.091C486.7 106.742 486.371 105.167 486.371 103.364C486.371 101.545 486.7 99.9583 487.359 98.6023C488.026 97.2462 488.95 96.1932 490.132 95.4432C491.321 94.6932 492.704 94.3182 494.28 94.3182C495.856 94.3182 497.234 94.6932 498.416 95.4432C499.606 96.1932 500.53 97.2462 501.189 98.6023C501.856 99.9583 502.189 101.545 502.189 103.364C502.189 105.167 501.856 106.742 501.189 108.091C500.53 109.439 499.606 110.489 498.416 111.239C497.234 111.989 495.856 112.364 494.28 112.364ZM494.28 109.955C495.477 109.955 496.462 109.648 497.234 109.034C498.007 108.42 498.579 107.614 498.95 106.614C499.321 105.614 499.507 104.53 499.507 103.364C499.507 102.197 499.321 101.11 498.95 100.102C498.579 99.0947 498.007 98.2803 497.234 97.6591C496.462 97.0379 495.477 96.7273 494.28 96.7273C493.083 96.7273 492.098 97.0379 491.325 97.6591C490.553 98.2803 489.981 99.0947 489.609 100.102C489.238 101.11 489.053 102.197 489.053 103.364C489.053 104.53 489.238 105.614 489.609 106.614C489.981 107.614 490.553 108.42 491.325 109.034C492.098 109.648 493.083 109.955 494.28 109.955ZM506.283 112V94.5455H508.874V97.2727H509.101C509.464 96.3409 510.052 95.6174 510.862 95.1023C511.673 94.5795 512.646 94.3182 513.783 94.3182C514.934 94.3182 515.893 94.5795 516.658 95.1023C517.43 95.6174 518.033 96.3409 518.464 97.2727H518.646C519.093 96.3712 519.764 95.6553 520.658 95.125C521.552 94.5871 522.624 94.3182 523.874 94.3182C525.434 94.3182 526.711 94.8068 527.703 95.7841C528.696 96.7538 529.192 98.2652 529.192 100.318V112H526.51V100.318C526.51 99.0303 526.158 98.1098 525.453 97.5568C524.749 97.0038 523.919 96.7273 522.964 96.7273C521.737 96.7273 520.786 97.0985 520.112 97.8409C519.438 98.5758 519.101 99.5076 519.101 100.636V112H516.374V100.045C516.374 99.053 516.052 98.2538 515.408 97.6477C514.764 97.0341 513.934 96.7273 512.919 96.7273C512.222 96.7273 511.571 96.9129 510.964 97.2841C510.366 97.6553 509.881 98.1705 509.51 98.8295C509.146 99.4811 508.964 100.235 508.964 101.091V112H506.283ZM462.287 127.727H465.651L473.56 147.045H473.832L481.741 127.727H485.105V151H482.469V133.318H482.241L474.969 151H472.423L465.151 133.318H464.923V151H462.287V127.727ZM500.392 138.114V140.614H490.21V138.114H500.392ZM513.247 127.727V151H510.429V130.682H510.293L504.611 134.455V131.591L510.429 127.727H513.247Z" fill="black"/>
<path d="M448.178 429V405.727H456.041C457.859 405.727 459.352 406.038 460.518 406.659C461.685 407.273 462.549 408.117 463.109 409.193C463.67 410.269 463.95 411.492 463.95 412.864C463.95 414.235 463.67 415.451 463.109 416.511C462.549 417.572 461.689 418.405 460.53 419.011C459.371 419.61 457.89 419.909 456.087 419.909H449.723V417.364H455.996C457.238 417.364 458.238 417.182 458.996 416.818C459.761 416.455 460.314 415.939 460.655 415.273C461.003 414.598 461.178 413.795 461.178 412.864C461.178 411.932 461.003 411.117 460.655 410.42C460.306 409.723 459.75 409.186 458.984 408.807C458.219 408.42 457.208 408.227 455.95 408.227H450.996V429H448.178ZM459.132 418.545L464.859 429H461.587L455.95 418.545H459.132ZM475.186 429.364C473.61 429.364 472.228 428.989 471.038 428.239C469.857 427.489 468.932 426.439 468.266 425.091C467.607 423.742 467.277 422.167 467.277 420.364C467.277 418.545 467.607 416.958 468.266 415.602C468.932 414.246 469.857 413.193 471.038 412.443C472.228 411.693 473.61 411.318 475.186 411.318C476.762 411.318 478.141 411.693 479.322 412.443C480.512 413.193 481.436 414.246 482.095 415.602C482.762 416.958 483.095 418.545 483.095 420.364C483.095 422.167 482.762 423.742 482.095 425.091C481.436 426.439 480.512 427.489 479.322 428.239C478.141 428.989 476.762 429.364 475.186 429.364ZM475.186 426.955C476.383 426.955 477.368 426.648 478.141 426.034C478.913 425.42 479.485 424.614 479.857 423.614C480.228 422.614 480.413 421.53 480.413 420.364C480.413 419.197 480.228 418.11 479.857 417.102C479.485 416.095 478.913 415.28 478.141 414.659C477.368 414.038 476.383 413.727 475.186 413.727C473.989 413.727 473.004 414.038 472.232 414.659C471.459 415.28 470.887 416.095 470.516 417.102C470.144 418.11 469.959 419.197 469.959 420.364C469.959 421.53 470.144 422.614 470.516 423.614C470.887 424.614 471.459 425.42 472.232 426.034C473.004 426.648 473.989 426.955 475.186 426.955ZM494.28 429.364C492.704 429.364 491.321 428.989 490.132 428.239C488.95 427.489 488.026 426.439 487.359 425.091C486.7 423.742 486.371 422.167 486.371 420.364C486.371 418.545 486.7 416.958 487.359 415.602C488.026 414.246 488.95 413.193 490.132 412.443C491.321 411.693 492.704 411.318 494.28 411.318C495.856 411.318 497.234 411.693 498.416 412.443C499.606 413.193 500.53 414.246 501.189 415.602C501.856 416.958 502.189 418.545 502.189 420.364C502.189 422.167 501.856 423.742 501.189 425.091C500.53 426.439 499.606 427.489 498.416 428.239C497.234 428.989 495.856 429.364 494.28 429.364ZM494.28 426.955C495.477 426.955 496.462 426.648 497.234 426.034C498.007 425.42 498.579 424.614 498.95 423.614C499.321 422.614 499.507 421.53 499.507 420.364C499.507 419.197 499.321 418.11 498.95 417.102C498.579 416.095 498.007 415.28 497.234 414.659C496.462 414.038 495.477 413.727 494.28 413.727C493.083 413.727 492.098 414.038 491.325 414.659C490.553 415.28 489.981 416.095 489.609 417.102C489.238 418.11 489.053 419.197 489.053 420.364C489.053 421.53 489.238 422.614 489.609 423.614C489.981 424.614 490.553 425.42 491.325 426.034C492.098 426.648 493.083 426.955 494.28 426.955ZM506.283 429V411.545H508.874V414.273H509.101C509.464 413.341 510.052 412.617 510.862 412.102C511.673 411.58 512.646 411.318 513.783 411.318C514.934 411.318 515.893 411.58 516.658 412.102C517.43 412.617 518.033 413.341 518.464 414.273H518.646C519.093 413.371 519.764 412.655 520.658 412.125C521.552 411.587 522.624 411.318 523.874 411.318C525.434 411.318 526.711 411.807 527.703 412.784C528.696 413.754 529.192 415.265 529.192 417.318V429H526.51V417.318C526.51 416.03 526.158 415.11 525.453 414.557C524.749 414.004 523.919 413.727 522.964 413.727C521.737 413.727 520.786 414.098 520.112 414.841C519.438 415.576 519.101 416.508 519.101 417.636V429H516.374V417.045C516.374 416.053 516.052 415.254 515.408 414.648C514.764 414.034 513.934 413.727 512.919 413.727C512.222 413.727 511.571 413.913 510.964 414.284C510.366 414.655 509.881 415.17 509.51 415.83C509.146 416.481 508.964 417.235 508.964 418.091V429H506.283ZM468.881 468V444.727H471.699V465.5H482.517V468H468.881ZM493.798 455.114V457.614H483.616V455.114H493.798ZM506.653 444.727V468H503.835V447.682H503.699L498.017 451.455V448.591L503.835 444.727H506.653Z" fill="black"/>
<rect x="43" y="232" width="195" height="171" rx="15" fill="#8EF474"/>
<path d="M100.178 310V286.727H108.041C109.859 286.727 111.352 287.038 112.518 287.659C113.685 288.273 114.549 289.117 115.109 290.193C115.67 291.269 115.95 292.492 115.95 293.864C115.95 295.235 115.67 296.451 115.109 297.511C114.549 298.572 113.689 299.405 112.53 300.011C111.371 300.61 109.89 300.909 108.087 300.909H101.723V298.364H107.996C109.238 298.364 110.238 298.182 110.996 297.818C111.761 297.455 112.314 296.939 112.655 296.273C113.003 295.598 113.178 294.795 113.178 293.864C113.178 292.932 113.003 292.117 112.655 291.42C112.306 290.723 111.75 290.186 110.984 289.807C110.219 289.42 109.208 289.227 107.95 289.227H102.996V310H100.178ZM111.132 299.545L116.859 310H113.587L107.95 299.545H111.132ZM127.186 310.364C125.61 310.364 124.228 309.989 123.038 309.239C121.857 308.489 120.932 307.439 120.266 306.091C119.607 304.742 119.277 303.167 119.277 301.364C119.277 299.545 119.607 297.958 120.266 296.602C120.932 295.246 121.857 294.193 123.038 293.443C124.228 292.693 125.61 292.318 127.186 292.318C128.762 292.318 130.141 292.693 131.322 293.443C132.512 294.193 133.436 295.246 134.095 296.602C134.762 297.958 135.095 299.545 135.095 301.364C135.095 303.167 134.762 304.742 134.095 306.091C133.436 307.439 132.512 308.489 131.322 309.239C130.141 309.989 128.762 310.364 127.186 310.364ZM127.186 307.955C128.383 307.955 129.368 307.648 130.141 307.034C130.913 306.42 131.485 305.614 131.857 304.614C132.228 303.614 132.413 302.53 132.413 301.364C132.413 300.197 132.228 299.11 131.857 298.102C131.485 297.095 130.913 296.28 130.141 295.659C129.368 295.038 128.383 294.727 127.186 294.727C125.989 294.727 125.004 295.038 124.232 295.659C123.459 296.28 122.887 297.095 122.516 298.102C122.144 299.11 121.959 300.197 121.959 301.364C121.959 302.53 122.144 303.614 122.516 304.614C122.887 305.614 123.459 306.42 124.232 307.034C125.004 307.648 125.989 307.955 127.186 307.955ZM146.28 310.364C144.704 310.364 143.321 309.989 142.132 309.239C140.95 308.489 140.026 307.439 139.359 306.091C138.7 304.742 138.371 303.167 138.371 301.364C138.371 299.545 138.7 297.958 139.359 296.602C140.026 295.246 140.95 294.193 142.132 293.443C143.321 292.693 144.704 292.318 146.28 292.318C147.856 292.318 149.234 292.693 150.416 293.443C151.606 294.193 152.53 295.246 153.189 296.602C153.856 297.958 154.189 299.545 154.189 301.364C154.189 303.167 153.856 304.742 153.189 306.091C152.53 307.439 151.606 308.489 150.416 309.239C149.234 309.989 147.856 310.364 146.28 310.364ZM146.28 307.955C147.477 307.955 148.462 307.648 149.234 307.034C150.007 306.42 150.579 305.614 150.95 304.614C151.321 303.614 151.507 302.53 151.507 301.364C151.507 300.197 151.321 299.11 150.95 298.102C150.579 297.095 150.007 296.28 149.234 295.659C148.462 295.038 147.477 294.727 146.28 294.727C145.083 294.727 144.098 295.038 143.325 295.659C142.553 296.28 141.981 297.095 141.609 298.102C141.238 299.11 141.053 300.197 141.053 301.364C141.053 302.53 141.238 303.614 141.609 304.614C141.981 305.614 142.553 306.42 143.325 307.034C144.098 307.648 145.083 307.955 146.28 307.955ZM158.283 310V292.545H160.874V295.273H161.101C161.464 294.341 162.052 293.617 162.862 293.102C163.673 292.58 164.646 292.318 165.783 292.318C166.934 292.318 167.893 292.58 168.658 293.102C169.43 293.617 170.033 294.341 170.464 295.273H170.646C171.093 294.371 171.764 293.655 172.658 293.125C173.552 292.587 174.624 292.318 175.874 292.318C177.434 292.318 178.711 292.807 179.703 293.784C180.696 294.754 181.192 296.265 181.192 298.318V310H178.51V298.318C178.51 297.03 178.158 296.11 177.453 295.557C176.749 295.004 175.919 294.727 174.964 294.727C173.737 294.727 172.786 295.098 172.112 295.841C171.438 296.576 171.101 297.508 171.101 298.636V310H168.374V298.045C168.374 297.053 168.052 296.254 167.408 295.648C166.764 295.034 165.934 294.727 164.919 294.727C164.222 294.727 163.571 294.913 162.964 295.284C162.366 295.655 161.881 296.17 161.51 296.83C161.146 297.481 160.964 298.235 160.964 299.091V310H158.283ZM129.342 331.545C129.206 330.394 128.653 329.5 127.683 328.864C126.714 328.227 125.524 327.909 124.115 327.909C123.085 327.909 122.183 328.076 121.411 328.409C120.645 328.742 120.047 329.201 119.615 329.784C119.191 330.367 118.979 331.03 118.979 331.773C118.979 332.394 119.126 332.928 119.422 333.375C119.725 333.814 120.111 334.182 120.581 334.477C121.051 334.765 121.543 335.004 122.058 335.193C122.573 335.375 123.047 335.523 123.479 335.636L125.842 336.273C126.448 336.432 127.123 336.652 127.865 336.932C128.615 337.212 129.331 337.595 130.013 338.08C130.702 338.557 131.27 339.17 131.717 339.92C132.164 340.67 132.388 341.591 132.388 342.682C132.388 343.939 132.058 345.076 131.399 346.091C130.748 347.106 129.793 347.913 128.536 348.511C127.286 349.11 125.767 349.409 123.979 349.409C122.312 349.409 120.869 349.14 119.649 348.602C118.437 348.064 117.482 347.314 116.786 346.352C116.096 345.39 115.706 344.273 115.615 343H118.524C118.6 343.879 118.895 344.606 119.411 345.182C119.933 345.75 120.592 346.174 121.388 346.455C122.191 346.727 123.054 346.864 123.979 346.864C125.054 346.864 126.02 346.689 126.876 346.341C127.732 345.985 128.411 345.492 128.911 344.864C129.411 344.227 129.661 343.485 129.661 342.636C129.661 341.864 129.445 341.235 129.013 340.75C128.581 340.265 128.013 339.871 127.308 339.568C126.604 339.265 125.842 339 125.024 338.773L122.161 337.955C120.342 337.432 118.903 336.686 117.842 335.716C116.782 334.746 116.251 333.477 116.251 331.909C116.251 330.606 116.604 329.47 117.308 328.5C118.02 327.523 118.975 326.765 120.172 326.227C121.376 325.682 122.721 325.409 124.206 325.409C125.706 325.409 127.039 325.678 128.206 326.216C129.373 326.746 130.297 327.473 130.979 328.398C131.668 329.322 132.032 330.371 132.07 331.545H129.342ZM146.658 336.114V338.614H136.476V336.114H146.658ZM150.237 349V346.955L157.919 338.545C158.821 337.561 159.563 336.705 160.146 335.977C160.73 335.242 161.161 334.553 161.442 333.909C161.73 333.258 161.874 332.576 161.874 331.864C161.874 331.045 161.677 330.337 161.283 329.739C160.896 329.14 160.366 328.678 159.692 328.352C159.018 328.027 158.26 327.864 157.419 327.864C156.525 327.864 155.745 328.049 155.078 328.42C154.419 328.784 153.908 329.295 153.544 329.955C153.188 330.614 153.01 331.386 153.01 332.273H150.328C150.328 330.909 150.643 329.712 151.271 328.682C151.9 327.652 152.756 326.848 153.839 326.273C154.93 325.697 156.154 325.409 157.51 325.409C158.874 325.409 160.082 325.697 161.135 326.273C162.188 326.848 163.014 327.625 163.612 328.602C164.211 329.58 164.51 330.667 164.51 331.864C164.51 332.72 164.355 333.557 164.044 334.375C163.741 335.186 163.211 336.091 162.453 337.091C161.703 338.083 160.661 339.295 159.328 340.727L154.101 346.318V346.5H164.919V349H150.237Z" fill="black"/>
<path d="M100.178 508V484.727H108.041C109.859 484.727 111.352 485.038 112.518 485.659C113.685 486.273 114.549 487.117 115.109 488.193C115.67 489.269 115.95 490.492 115.95 491.864C115.95 493.235 115.67 494.451 115.109 495.511C114.549 496.572 113.689 497.405 112.53 498.011C111.371 498.61 109.89 498.909 108.087 498.909H101.723V496.364H107.996C109.238 496.364 110.238 496.182 110.996 495.818C111.761 495.455 112.314 494.939 112.655 494.273C113.003 493.598 113.178 492.795 113.178 491.864C113.178 490.932 113.003 490.117 112.655 489.42C112.306 488.723 111.75 488.186 110.984 487.807C110.219 487.42 109.208 487.227 107.95 487.227H102.996V508H100.178ZM111.132 497.545L116.859 508H113.587L107.95 497.545H111.132ZM127.186 508.364C125.61 508.364 124.228 507.989 123.038 507.239C121.857 506.489 120.932 505.439 120.266 504.091C119.607 502.742 119.277 501.167 119.277 499.364C119.277 497.545 119.607 495.958 120.266 494.602C120.932 493.246 121.857 492.193 123.038 491.443C124.228 490.693 125.61 490.318 127.186 490.318C128.762 490.318 130.141 490.693 131.322 491.443C132.512 492.193 133.436 493.246 134.095 494.602C134.762 495.958 135.095 497.545 135.095 499.364C135.095 501.167 134.762 502.742 134.095 504.091C133.436 505.439 132.512 506.489 131.322 507.239C130.141 507.989 128.762 508.364 127.186 508.364ZM127.186 505.955C128.383 505.955 129.368 505.648 130.141 505.034C130.913 504.42 131.485 503.614 131.857 502.614C132.228 501.614 132.413 500.53 132.413 499.364C132.413 498.197 132.228 497.11 131.857 496.102C131.485 495.095 130.913 494.28 130.141 493.659C129.368 493.038 128.383 492.727 127.186 492.727C125.989 492.727 125.004 493.038 124.232 493.659C123.459 494.28 122.887 495.095 122.516 496.102C122.144 497.11 121.959 498.197 121.959 499.364C121.959 500.53 122.144 501.614 122.516 502.614C122.887 503.614 123.459 504.42 124.232 505.034C125.004 505.648 125.989 505.955 127.186 505.955ZM146.28 508.364C144.704 508.364 143.321 507.989 142.132 507.239C140.95 506.489 140.026 505.439 139.359 504.091C138.7 502.742 138.371 501.167 138.371 499.364C138.371 497.545 138.7 495.958 139.359 494.602C140.026 493.246 140.95 492.193 142.132 491.443C143.321 490.693 144.704 490.318 146.28 490.318C147.856 490.318 149.234 490.693 150.416 491.443C151.606 492.193 152.53 493.246 153.189 494.602C153.856 495.958 154.189 497.545 154.189 499.364C154.189 501.167 153.856 502.742 153.189 504.091C152.53 505.439 151.606 506.489 150.416 507.239C149.234 507.989 147.856 508.364 146.28 508.364ZM146.28 505.955C147.477 505.955 148.462 505.648 149.234 505.034C150.007 504.42 150.579 503.614 150.95 502.614C151.321 501.614 151.507 500.53 151.507 499.364C151.507 498.197 151.321 497.11 150.95 496.102C150.579 495.095 150.007 494.28 149.234 493.659C148.462 493.038 147.477 492.727 146.28 492.727C145.083 492.727 144.098 493.038 143.325 493.659C142.553 494.28 141.981 495.095 141.609 496.102C141.238 497.11 141.053 498.197 141.053 499.364C141.053 500.53 141.238 501.614 141.609 502.614C141.981 503.614 142.553 504.42 143.325 505.034C144.098 505.648 145.083 505.955 146.28 505.955ZM158.283 508V490.545H160.874V493.273H161.101C161.464 492.341 162.052 491.617 162.862 491.102C163.673 490.58 164.646 490.318 165.783 490.318C166.934 490.318 167.893 490.58 168.658 491.102C169.43 491.617 170.033 492.341 170.464 493.273H170.646C171.093 492.371 171.764 491.655 172.658 491.125C173.552 490.587 174.624 490.318 175.874 490.318C177.434 490.318 178.711 490.807 179.703 491.784C180.696 492.754 181.192 494.265 181.192 496.318V508H178.51V496.318C178.51 495.03 178.158 494.11 177.453 493.557C176.749 493.004 175.919 492.727 174.964 492.727C173.737 492.727 172.786 493.098 172.112 493.841C171.438 494.576 171.101 495.508 171.101 496.636V508H168.374V496.045C168.374 495.053 168.052 494.254 167.408 493.648C166.764 493.034 165.934 492.727 164.919 492.727C164.222 492.727 163.571 492.913 162.964 493.284C162.366 493.655 161.881 494.17 161.51 494.83C161.146 495.481 160.964 496.235 160.964 497.091V508H158.283ZM128.483 529.545C128.347 528.394 127.794 527.5 126.824 526.864C125.854 526.227 124.665 525.909 123.256 525.909C122.225 525.909 121.324 526.076 120.551 526.409C119.786 526.742 119.188 527.201 118.756 527.784C118.331 528.367 118.119 529.03 118.119 529.773C118.119 530.394 118.267 530.928 118.562 531.375C118.866 531.814 119.252 532.182 119.722 532.477C120.191 532.765 120.684 533.004 121.199 533.193C121.714 533.375 122.188 533.523 122.619 533.636L124.983 534.273C125.589 534.432 126.263 534.652 127.006 534.932C127.756 535.212 128.472 535.595 129.153 536.08C129.843 536.557 130.411 537.17 130.858 537.92C131.305 538.67 131.528 539.591 131.528 540.682C131.528 541.939 131.199 543.076 130.54 544.091C129.888 545.106 128.934 545.913 127.676 546.511C126.426 547.11 124.907 547.409 123.119 547.409C121.453 547.409 120.009 547.14 118.79 546.602C117.578 546.064 116.623 545.314 115.926 544.352C115.237 543.39 114.847 542.273 114.756 541H117.665C117.741 541.879 118.036 542.606 118.551 543.182C119.074 543.75 119.733 544.174 120.528 544.455C121.331 544.727 122.195 544.864 123.119 544.864C124.195 544.864 125.161 544.689 126.017 544.341C126.873 543.985 127.551 543.492 128.051 542.864C128.551 542.227 128.801 541.485 128.801 540.636C128.801 539.864 128.585 539.235 128.153 538.75C127.722 538.265 127.153 537.871 126.449 537.568C125.744 537.265 124.983 537 124.165 536.773L121.301 535.955C119.483 535.432 118.044 534.686 116.983 533.716C115.922 532.746 115.392 531.477 115.392 529.909C115.392 528.606 115.744 527.47 116.449 526.5C117.161 525.523 118.116 524.765 119.312 524.227C120.517 523.682 121.862 523.409 123.347 523.409C124.847 523.409 126.18 523.678 127.347 524.216C128.513 524.746 129.438 525.473 130.119 526.398C130.809 527.322 131.172 528.371 131.21 529.545H128.483ZM145.798 534.114V536.614H135.616V534.114H145.798ZM157.96 547.318C156.46 547.318 155.123 547.061 153.949 546.545C152.782 546.03 151.854 545.314 151.165 544.398C150.483 543.473 150.112 542.402 150.051 541.182H152.915C152.975 541.932 153.233 542.58 153.688 543.125C154.142 543.663 154.737 544.08 155.472 544.375C156.206 544.67 157.021 544.818 157.915 544.818C158.915 544.818 159.801 544.644 160.574 544.295C161.347 543.947 161.953 543.462 162.392 542.841C162.831 542.22 163.051 541.5 163.051 540.682C163.051 539.826 162.839 539.072 162.415 538.42C161.991 537.761 161.369 537.246 160.551 536.875C159.733 536.504 158.733 536.318 157.551 536.318H155.688V533.818H157.551C158.475 533.818 159.286 533.652 159.983 533.318C160.688 532.985 161.237 532.515 161.631 531.909C162.032 531.303 162.233 530.591 162.233 529.773C162.233 528.985 162.059 528.299 161.71 527.716C161.362 527.133 160.869 526.678 160.233 526.352C159.604 526.027 158.862 525.864 158.006 525.864C157.203 525.864 156.445 526.011 155.733 526.307C155.028 526.595 154.453 527.015 154.006 527.568C153.559 528.114 153.316 528.773 153.278 529.545H150.551C150.597 528.326 150.964 527.258 151.653 526.341C152.343 525.417 153.244 524.697 154.358 524.182C155.479 523.667 156.71 523.409 158.051 523.409C159.491 523.409 160.725 523.701 161.756 524.284C162.786 524.86 163.578 525.621 164.131 526.568C164.684 527.515 164.96 528.538 164.96 529.636C164.96 530.947 164.616 532.064 163.926 532.989C163.244 533.913 162.316 534.553 161.142 534.909V535.091C162.612 535.333 163.759 535.958 164.585 536.966C165.411 537.966 165.824 539.205 165.824 540.682C165.824 541.947 165.479 543.083 164.79 544.091C164.108 545.091 163.176 545.879 161.994 546.455C160.813 547.03 159.468 547.318 157.96 547.318Z" fill="black"/>
</svg>
